<svg xmlns="http://www.w3.org/2000/svg" width="31" height="33" viewBox="0 0 31 33"><g><g><path fill="#fff" d="M7.152 9.245c0-5.093 3.716-9.246 8.297-9.246s8.297 4.126 8.297 9.246-3.716 9.274-8.297 9.274-8.297-4.182-8.297-9.274zm2.189 0c0 3.755 2.748 6.828 6.108 6.828 3.36 0 6.108-3.073 6.108-6.828 0-3.755-2.748-6.828-6.108-6.828-3.36 0-6.108 3.073-6.108 6.828zM0 31.776c0-6.43 4.683-11.635 10.41-11.635h10.18c5.752 0 10.41 5.234 10.41 11.635C31 32.46 30.516 33 29.906 33H1.094C.484 33 0 32.459 0 31.776zm2.265-1.223h26.47c-.535-4.495-3.97-7.966-8.145-7.966H10.41c-4.174 0-7.61 3.5-8.145 7.966z"/></g></g></svg>