<svg xmlns="http://www.w3.org/2000/svg" width="34" height="33" viewBox="0 0 34 33"><g><g><path fill="#fff" d="M29.34 17.182v14.84c0 .534-.428.978-.944.978h-8.873a.975.975 0 0 1-.98-.978v-5.646h-3.1v5.646c0 .534-.428.978-.944.978H5.59c-.517 0-.944-.444-.944-.978v-14.38c0-.534.427-.978.944-.978.553 0 .98.444.98.977V31.01h6.93v-5.646c0-.53.446-.993.999-.993h5.024c.517 0 .944.462.944.993v5.646h6.949V17.182c0-.573.427-1.012.98-1.012.516 0 .944.44.944 1.012zm4.383 1.212a1.054 1.054 0 0 1-.695.26c-.303 0-.535-.094-.695-.26L17.011 2.428 1.653 18.245c-.385.397-.998.424-1.354 0-.41-.364-.385-1 0-1.396L16.316.313c.196-.2.427-.314.695-.314.231 0 .463.11.659.314l6.378 6.624V3.476c0-.57.428-1.008.945-1.008.552 0 .997.439.997 1.008v5.466l7.733 8.016c.383.4.356 1.068 0 1.436z"/></g></g></svg>